<?xml version="1.0" standalone="no"?>
<!DOCTYPE svg PUBLIC "-//W3C//DTD SVG 20010904//EN"
 "http://www.w3.org/TR/2001/REC-SVG-20010904/DTD/svg10.dtd">
<svg version="1.0" xmlns="http://www.w3.org/2000/svg"
 width="976.000000pt" height="277.000000pt" viewBox="0 0 976.000000 277.000000"
 preserveAspectRatio="xMidYMid meet">
<metadata>
Created by potrace 1.16, written by Peter Selinger 2001-2019
</metadata>
<g transform="translate(0.000000,277.000000) scale(0.100000,-0.100000)"
fill="#000000" stroke="none">
<path d="M1005 2150 c-198 -19 -368 -85 -535 -210 -215 -161 -363 -430 -390
-705 -11 -117 2 -279 31 -394 42 -165 165 -369 288 -477 75 -65 151 -120 162
-116 5 1 9 -2 9 -6 0 -17 176 -92 275 -118 88 -24 120 -27 270 -28 149 -1 181
2 255 22 220 60 404 179 542 351 67 83 148 224 148 256 0 9 7 23 15 31 8 9 15
22 15 30 0 22 -28 16 -36 -8 -3 -12 -17 -33 -30 -47 -13 -14 -25 -30 -26 -36
-1 -5 -5 24 -9 65 -5 58 -6 48 -3 -42 l4 -118 -84 0 c-80 0 -85 1 -89 23 -4
19 -4 18 -6 -5 -1 -26 2 -28 37 -28 35 -1 36 -1 17 -16 -56 -43 -224 -114
-272 -114 -12 0 -23 -3 -23 -7 0 -5 -47 -8 -105 -8 -58 0 -105 3 -105 6 0 4
-19 9 -42 13 -24 4 -70 19 -103 33 -260 115 -425 364 -425 640 0 240 158 487
380 595 52 25 116 51 142 57 182 43 368 8 530 -98 75 -49 198 -172 198 -197 0
-8 7 -14 15 -14 8 0 15 9 15 20 0 11 -4 20 -10 20 -5 0 -10 7 -10 16 0 49
-125 240 -212 324 -94 92 -249 196 -271 184 -7 -4 -9 -4 -5 1 20 22 -198 90
-334 104 -105 12 -103 12 -223 1z m259 -112 c90 -14 192 -49 272 -93 35 -20
64 -37 64 -39 0 -2 -42 -1 -94 2 -51 2 -124 -1 -162 -7 -105 -18 -184 -42
-177 -54 3 -6 1 -7 -6 -3 -16 10 -133 -56 -199 -112 -63 -54 -128 -136 -178
-224 -140 -247 -139 -526 3 -770 113 -194 277 -322 478 -374 73 -19 281 -25
340 -10 29 7 29 6 -9 -20 -63 -43 -179 -93 -273 -116 -125 -32 -324 -31 -438
2 -44 13 -90 23 -102 24 -11 1 -19 4 -17 7 2 3 -20 17 -49 30 -207 96 -406
312 -483 523 -121 333 -41 704 205 959 153 158 364 265 561 284 36 3 67 7 69
9 5 5 111 -5 195 -18z"/>
<path d="M3031 1670 c-29 -5 -56 -12 -60 -17 -3 -4 -17 -9 -31 -11 -40 -4
-128 -63 -181 -120 -82 -89 -143 -211 -184 -363 -23 -88 -12 -111 48 -107 l41
3 26 92 c38 133 88 227 157 297 67 68 135 103 230 118 85 14 97 22 89 67 -8
53 -22 57 -135 41z"/>
<path d="M5745 1616 c-64 -29 -73 -50 -177 -393 l-100 -328 2 -202 c2 -223 0
-231 -64 -292 -19 -19 -52 -42 -73 -52 -21 -9 -31 -18 -22 -18 24 -1 103 53
134 92 27 34 29 34 47 17 26 -24 90 -33 139 -20 61 17 73 44 78 177 l3 113
162 -2 161 -3 5 -117 c5 -111 6 -119 32 -145 24 -24 35 -27 93 -27 58 0 69 3
93 27 l27 28 0 197 0 197 -54 180 c-29 99 -56 184 -59 190 -3 5 -7 18 -8 30
-4 32 -74 257 -90 287 -7 14 -28 37 -46 50 -29 20 -46 23 -143 26 -78 2 -119
-2 -140 -12z m189 -436 c32 -113 59 -213 62 -222 5 -17 -5 -18 -120 -18 -69 0
-126 2 -126 5 0 3 22 85 49 183 27 97 54 197 61 221 6 23 13 41 15 40 2 -2 28
-96 59 -209z"/>
<path d="M7163 1624 c-12 -3 -34 -19 -49 -37 -24 -28 -26 -37 -22 -105 3 -68
6 -76 33 -98 25 -20 41 -24 101 -24 61 0 75 3 97 24 32 30 41 61 35 132 -7 78
-35 104 -114 109 -32 2 -69 1 -81 -1z"/>
<path d="M3013 1512 c-72 -26 -129 -68 -173 -127 -33 -44 -77 -120 -78 -135 0
-3 -6 -18 -12 -35 -41 -106 -52 -305 -24 -441 36 -171 127 -306 246 -359 88
-40 208 -46 308 -16 39 12 73 28 77 36 3 8 9 13 13 10 11 -7 92 82 122 135 89
153 110 448 45 637 -48 137 -122 227 -227 277 -55 26 -78 31 -155 34 -67 2
-103 -2 -142 -16z m232 -116 c62 -29 133 -104 167 -176 71 -151 69 -387 -4
-540 -31 -64 -105 -139 -163 -166 -216 -101 -427 119 -426 445 1 320 212 537
426 437z"/>
<path d="M3076 1380 c-128 -39 -226 -220 -226 -420 0 -81 10 -140 22 -140 6 0
45 32 87 71 l76 72 6 -69 c9 -119 62 -184 149 -184 97 0 157 90 148 221 -5 59
-11 79 -37 115 -17 25 -31 46 -31 48 0 3 30 14 66 26 64 22 66 23 60 51 -7 36
-63 125 -102 161 -56 52 -141 71 -218 48z m28 -181 c37 -43 35 -92 -3 -125
-17 -14 -33 -34 -36 -44 -9 -29 -33 -24 -71 14 -26 26 -34 42 -34 70 0 101 87
153 144 85z"/>
<path d="M8882 1279 c-114 -20 -195 -85 -229 -184 -26 -72 -26 -442 -1 -497
25 -56 93 -123 148 -147 103 -44 287 -47 411 -6 95 32 159 115 145 189 -8 42
-30 62 -79 70 -70 13 -128 -3 -168 -44 -57 -60 -92 -72 -142 -49 -36 16 -56
60 -59 125 l-3 59 205 3 c267 4 255 -4 255 159 0 110 -2 122 -29 176 -32 66
-85 107 -168 132 -62 18 -219 26 -286 14z m171 -200 c28 -13 44 -43 53 -99 l7
-40 -108 0 -107 0 7 43 c10 67 15 76 43 92 33 17 73 19 105 4z"/>
<path d="M6364 1270 c-11 -4 -29 -21 -40 -37 -18 -26 -19 -49 -19 -378 0 -327
1 -352 19 -382 24 -39 54 -53 111 -53 60 0 89 15 113 59 18 32 20 59 25 251 3
118 10 232 16 253 24 77 95 112 137 66 17 -19 19 -44 24 -288 5 -246 7 -268
25 -293 26 -35 56 -48 110 -48 66 0 90 13 114 64 21 43 22 54 19 323 -3 263
-4 281 -25 326 -44 96 -126 147 -233 147 -70 0 -127 -25 -161 -73 -18 -25 -29
-34 -29 -23 0 26 -30 65 -61 82 -30 15 -111 18 -145 4z"/>
<path d="M7137 1259 c-45 -35 -48 -69 -45 -436 l3 -342 28 -29 c57 -59 172
-49 211 18 20 33 21 53 24 357 3 344 -1 387 -43 429 -33 33 -139 35 -178 3z"/>
<path d="M7501 1264 c-48 -34 -51 -60 -51 -406 0 -191 4 -338 10 -360 19 -68
97 -102 174 -76 75 25 80 41 87 286 6 166 11 230 25 272 10 30 17 58 16 62 -1
5 1 7 6 6 4 -1 18 4 30 11 13 7 34 10 45 7 48 -12 52 -34 57 -313 5 -246 6
-263 26 -290 41 -54 142 -66 198 -22 37 29 46 77 45 255 0 227 19 321 73 358
31 22 45 20 73 -9 25 -24 25 -25 25 -227 1 -268 9 -332 48 -371 27 -27 38 -30
91 -31 46 -1 66 4 88 20 50 37 54 71 51 379 l-3 280 -27 51 c-33 62 -88 110
-143 125 -22 6 -79 9 -126 7 -71 -3 -93 -9 -132 -32 -26 -15 -53 -35 -59 -45
-11 -17 -13 -16 -37 12 -38 45 -95 67 -174 67 -77 0 -129 -21 -168 -68 l-24
-28 -18 36 c-9 20 -29 42 -43 48 -38 18 -135 15 -163 -4z"/>
</g>
</svg>
