<?xml version="1.0" standalone="no"?>
<!DOCTYPE svg PUBLIC "-//W3C//DTD SVG 20010904//EN"
 "http://www.w3.org/TR/2001/REC-SVG-20010904/DTD/svg10.dtd">
<svg version="1.0" xmlns="http://www.w3.org/2000/svg"
 width="200.000000pt" height="56.000000pt" viewBox="0 0 200.000000 56.000000"
 preserveAspectRatio="xMidYMid meet">
<metadata>
Created by potrace 1.10, written by Peter Selinger 2001-2011
</metadata>
<g transform="translate(0.000000,56.000000) scale(0.100000,-0.100000)"
fill="#ffffff" stroke="none">
<path d="M1809 539 c-6 -11 -9 -38 -8 -59 2 -26 -3 -45 -14 -58 -28 -31 -31
-74 -8 -114 l22 -36 -21 -5 c-22 -6 -80 10 -80 21 0 4 7 16 15 26 39 52 -9
136 -77 136 -76 0 -117 -100 -63 -154 l24 -24 -42 1 c-40 2 -42 4 -42 32 0 23
-6 31 -27 39 -23 8 -31 6 -48 -14 -11 -13 -18 -31 -15 -40 5 -15 -4 -17 -74
-16 -74 1 -80 2 -86 23 -13 52 -101 68 -125 22 -8 -14 -17 -17 -40 -12 -17 3
-36 0 -43 -6 -8 -6 -17 -7 -21 -3 -12 12 -290 10 -298 -2 -5 -7 -17 -1 -36 17
-27 26 -52 35 -52 19 0 -4 -16 -14 -36 -21 -28 -10 -40 -23 -55 -57 -23 -51
-43 -60 -27 -11 15 44 54 84 89 91 16 3 29 11 29 17 0 7 -9 9 -26 5 -19 -5
-24 -4 -18 5 13 22 -66 -45 -82 -69 -13 -20 -16 -21 -30 -7 -9 8 -24 15 -34
15 -12 0 -22 12 -30 34 -12 37 -49 74 -99 99 -38 19 -191 24 -191 7 0 -5 -6
-10 -14 -10 -7 0 -32 -17 -54 -38 -69 -63 -90 -161 -53 -251 20 -51 69 -111
89 -111 7 0 11 -4 7 -9 -7 -13 96 -25 155 -18 59 7 84 21 132 71 37 39 38 40
59 20 12 -10 23 -18 25 -16 19 12 40 39 37 48 -3 7 1 15 8 20 8 4 10 3 5 -4
-4 -7 -2 -12 3 -12 6 0 11 -5 11 -12 0 -7 12 -25 27 -40 39 -41 95 -39 139 3
21 21 37 28 45 23 28 -17 133 -12 167 7 39 22 54 17 47 -14 -15 -57 63 -82
150 -49 28 10 49 24 47 30 -1 7 2 12 8 12 5 0 10 7 10 15 0 8 5 15 11 15 5 0
8 -4 5 -8 -2 -4 4 -18 14 -31 21 -29 82 -36 118 -14 19 12 25 12 44 -1 15 -11
26 -12 40 -5 14 7 23 7 33 -1 10 -8 19 -8 34 0 15 8 27 8 42 -1 17 -9 25 -7
45 12 13 12 24 17 24 11 0 -6 9 -16 21 -22 16 -9 25 -8 42 3 19 12 25 12 44 0
16 -11 27 -12 42 -4 14 8 28 8 48 0 37 -14 85 -4 110 24 26 28 30 129 7 165
-14 22 -14 25 2 43 9 10 27 19 39 19 11 0 26 5 33 12 16 16 16 197 -1 219 -9
11 -32 16 -89 17 -68 1 -79 -2 -89 -19z m51 -44 c0 -33 -4 -45 -15 -45 -11 0
-15 12 -15 45 0 33 4 45 15 45 11 0 15 -12 15 -45z m50 31 c0 -7 3 -28 6 -45
5 -24 3 -31 -10 -31 -12 0 -16 10 -16 45 0 25 5 45 10 45 6 0 10 -6 10 -14z
m65 -48 c9 -86 4 -133 -15 -133 -10 0 -16 12 -18 35 -5 49 8 160 18 160 5 0
11 -28 15 -62z m-1650 -67 c54 -33 115 -104 102 -117 -3 -3 -10 4 -16 15 -16
30 -63 51 -113 51 -34 0 -52 -7 -80 -30 -67 -55 -70 -136 -8 -201 32 -34 42
-39 83 -39 51 0 107 17 91 28 -6 4 -13 40 -16 80 -4 57 -3 72 9 72 7 0 16 -7
20 -16 5 -15 7 -15 15 0 11 19 59 21 76 4 7 -7 12 -39 12 -74 0 -54 -3 -62
-20 -67 -20 -5 -21 -1 -19 54 3 68 -9 89 -35 63 -12 -11 -16 -30 -15 -65 2
-44 -1 -53 -32 -85 -44 -47 -85 -64 -152 -64 -138 0 -235 130 -198 266 12 45
69 109 116 130 46 20 144 18 180 -5z m1365 -11 c27 -27 25 -52 -4 -80 -32 -29
-74 -29 -98 0 -22 27 -23 49 -2 78 20 29 76 30 104 2z m212 3 c40 -36 9 -105
-47 -105 -55 0 -81 54 -49 100 18 27 69 30 96 5z m-1564 -87 c1 -2 0 -10 -3
-18 -5 -13 -11 -14 -36 -5 -24 10 -32 9 -39 -3 -15 -24 -12 -28 29 -49 53 -28
67 -67 34 -103 -28 -31 -113 -22 -113 12 0 16 4 17 29 7 65 -24 82 23 19 57
-20 10 -39 25 -42 33 -10 25 5 64 28 73 18 8 85 4 94 -4z m888 6 c19 -12 55
-149 52 -195 -2 -34 -7 -42 -23 -42 -16 0 -20 6 -18 27 2 26 -1 28 -39 28 -30
0 -39 -3 -35 -14 8 -20 -17 -51 -32 -41 -9 5 -10 10 -2 18 14 14 14 50 1 63
-13 13 22 143 42 155 16 11 39 11 54 1z m269 -22 c0 -29 -32 -41 -41 -16 -9
24 4 48 23 44 12 -2 18 -12 18 -28z m-1110 10 c-3 -5 -10 -10 -16 -10 -5 0 -9
5 -9 10 0 6 7 10 16 10 8 0 12 -4 9 -10z m297 -11 c11 -6 26 -26 34 -44 43
-105 -22 -211 -106 -172 -69 33 -70 175 -1 212 32 17 46 18 73 4z m108 -73 c0
-51 12 -77 28 -62 3 4 5 31 4 61 -2 53 -1 55 23 55 24 0 25 -3 25 -60 0 -47 3
-60 15 -60 15 0 19 21 15 88 -1 28 1 32 24 32 25 0 26 -3 26 -53 0 -30 -6 -62
-15 -74 -18 -25 -59 -35 -82 -18 -14 10 -21 10 -39 -2 -17 -11 -27 -12 -43 -3
-17 8 -21 21 -21 58 0 26 -3 57 -6 70 -5 19 -2 22 20 22 25 0 26 -2 26 -54z
m240 -6 c0 -56 10 -75 26 -48 4 6 6 33 5 60 -1 45 0 48 24 48 23 0 25 -4 25
-44 0 -24 3 -63 6 -87 5 -35 2 -49 -13 -68 -17 -21 -25 -23 -66 -17 -41 6 -46
10 -38 24 6 11 22 17 43 17 27 0 34 4 36 22 3 22 2 22 -25 8 -23 -12 -31 -12
-48 -1 -16 11 -21 26 -23 80 -3 65 -2 66 23 66 24 0 25 -2 25 -60z m307 24 c5
-15 7 -15 15 0 12 22 41 20 62 -3 13 -15 16 -34 14 -87 -3 -61 -5 -69 -23 -69
-17 0 -20 8 -23 55 -3 73 -8 86 -27 70 -8 -7 -15 -34 -17 -68 -3 -49 -6 -57
-23 -57 -18 0 -20 8 -23 74 -2 41 -1 80 2 88 7 18 35 16 43 -3z m158 -74 c0
-78 -2 -85 -20 -85 -18 0 -20 8 -23 74 -3 86 1 104 25 99 16 -3 18 -15 18 -88z
m73 74 c8 -14 10 -14 21 0 17 20 30 20 51 1 15 -14 18 -14 30 0 15 18 40 19
63 3 20 -16 28 -141 10 -159 -23 -23 -43 8 -43 67 0 91 -32 79 -34 -13 -1 -32
-6 -49 -19 -57 -25 -16 -37 7 -37 71 0 50 -12 75 -25 53 -4 -6 -7 -33 -9 -60
-2 -54 -16 -76 -40 -67 -13 5 -16 23 -16 85 0 43 3 82 7 85 11 12 32 8 41 -9z
m329 -11 c7 -9 13 -29 13 -45 0 -27 -2 -28 -51 -28 -43 0 -50 -3 -47 -17 3
-19 48 -32 48 -14 0 15 37 14 46 -1 10 -16 -33 -48 -66 -48 -47 0 -69 28 -72
89 -1 46 2 57 22 73 29 24 88 19 107 -9z m-1674 -30 c14 -17 14 -18 -9 -18
-16 0 -24 6 -24 18 0 9 4 17 8 17 5 0 16 -8 25 -17z"/>
<path d="M126 380 c-175 -111 -60 -383 144 -339 26 6 55 16 64 22 14 10 8 12
-29 9 -37 -3 -54 1 -85 22 -129 86 -75 284 79 287 l46 1 -30 13 c-16 8 -55 14
-86 15 -45 0 -64 -6 -103 -30z m46 -33 c-66 -68 -62 -180 8 -249 37 -36 37
-38 14 -38 -13 0 -24 5 -24 10 0 6 -7 10 -15 10 -43 0 -98 98 -90 160 1 14 3
33 4 43 0 10 6 15 11 12 6 -3 10 0 10 8 0 21 42 63 76 74 41 14 42 8 6 -30z"/>
<path d="M1620 375 c-10 -12 -10 -18 0 -30 17 -20 37 -19 49 3 18 34 -24 57
-49 27z"/>
<path d="M1834 375 c-4 -8 -3 -22 0 -31 8 -21 50 -14 54 10 6 31 -43 50 -54
21z"/>
<path d="M1183 235 c-10 -45 -10 -45 17 -45 26 0 26 0 16 45 -6 25 -13 45 -17
45 -3 0 -10 -20 -16 -45z"/>
<path d="M613 275 c-42 -29 -48 -118 -12 -161 6 -8 27 -14 46 -14 30 0 36 5
50 37 20 48 12 112 -17 135 -27 22 -39 22 -67 3z m72 -25 c3 -6 3 -15 -1 -22
-4 -6 -8 -28 -8 -47 -1 -29 -5 -36 -21 -36 -11 0 -24 10 -30 22 -9 17 -14 20
-23 11 -9 -9 -12 -4 -12 20 0 45 41 87 69 72 11 -5 23 -15 26 -20z"/>
<path d="M612 237 c-13 -15 1 -42 17 -33 13 8 15 46 2 46 -5 0 -13 -6 -19 -13z"/>
<path d="M1815 211 c-9 -16 3 -31 26 -31 14 0 19 6 17 17 -4 20 -33 29 -43 14z"/>
<path d="M203 463 c9 -2 23 -2 30 0 6 3 -1 5 -18 5 -16 0 -22 -2 -12 -5z"/>
</g>
</svg>
