<?xml version="1.0" standalone="no"?>
<!DOCTYPE svg PUBLIC "-//W3C//DTD SVG 20010904//EN"
 "http://www.w3.org/TR/2001/REC-SVG-20010904/DTD/svg10.dtd">
<svg version="1.0" xmlns="http://www.w3.org/2000/svg"
 width="200.000000pt" height="56.000000pt" viewBox="0 0 200.000000 56.000000"
 preserveAspectRatio="xMidYMid meet">
<metadata>
Created by potrace 1.16, written by Peter Selinger 2001-2019
</metadata>
<g transform="translate(0.000000,56.000000) scale(0.100000,-0.100000)"
fill="#000000" stroke="none">
<path d="M0 280 l0 -280 1000 0 1000 0 0 280 0 280 -1000 0 -1000 0 0 -280z
m790 -54 c0 -50 12 -77 27 -62 4 3 8 31 11 61 4 46 8 55 23 55 17 0 19 -8 19
-60 0 -45 4 -60 14 -60 15 0 33 91 21 110 -4 6 4 10 19 10 25 0 26 -3 26 -53
0 -31 -6 -61 -15 -74 -14 -20 -23 -22 -98 -20 l-82 2 -3 73 c-3 67 -1 72 18
72 18 0 20 -6 20 -54z m240 0 c0 -30 5 -58 10 -61 13 -8 30 37 30 81 0 27 4
34 20 34 16 0 20 -7 20 -34 0 -18 3 -60 6 -93 6 -58 5 -62 -20 -78 -34 -22
-99 -13 -94 13 3 12 12 16 32 14 29 -3 46 10 46 37 0 12 -3 12 -12 3 -15 -15
-61 -15 -76 0 -7 7 -12 39 -12 75 0 61 1 63 25 63 24 0 25 -3 25 -54z"/>
</g>
</svg>
